HIERARCHY
ROOT pelvis
{
  OFFSET 0 100 0
  CHANNELS 6 Xposition Yposition Zposition Zrotation Xrotation Yrotation
  JOINT pelvis_right_femur
  {
    OFFSET -10.78128 -3.44521 -0.5502486
    CHANNELS 3 Zrotation Xrotation Yrotation
    JOINT right_femur_tibia
    {
      OFFSET -0.8047443 -44.0398 -0.1307829
      CHANNELS 3 Zrotation Xrotation Yrotation
      JOINT right_tibia_foot
      {
        OFFSET 3.006224 -47.83518 -5
        CHANNELS 3 Zrotation Xrotation Yrotation
        End Site
        {
          OFFSET 0 -5 15
        }
      }
    }
  }
  JOINT pelvis_left_femur
  {
    OFFSET 10.78128 -3.44521 -0.5502486
    CHANNELS 3 Zrotation Xrotation Yrotation
    JOINT left_femur_tibia
    {
      OFFSET 0.8047443 -44.0398 -0.1307829
      CHANNELS 3 Zrotation Xrotation Yrotation
      JOINT left_tibia_foot
      {
        OFFSET -4.370144 -48.10324 -4.275266
        CHANNELS 3 Zrotation Xrotation Yrotation
        End Site
        {
          OFFSET 0 -5 15
        }
      }
    }
  }
  JOINT pelvis_spine1
  {
    OFFSET 0 6.468898 -3.129235
    CHANNELS 3 Zrotation Xrotation Yrotation
    JOINT spine1
    {
      OFFSET 0 23.15396 4.99043
      CHANNELS 3 Zrotation Xrotation Yrotation
      JOINT spine2
      {
        OFFSET 0 20.79997 -5.064912
        CHANNELS 3 Zrotation Xrotation Yrotation
        JOINT neck
        {
          OFFSET 0 14.38658 9.616178
          CHANNELS 3 Zrotation Xrotation Yrotation
          End Site
          {
            OFFSET 0 20 0
          }
        }
      }
      JOINT right_manubrium
      {
        OFFSET -5.722621 16.35077 3.967754
        CHANNELS 3 Zrotation Xrotation Yrotation
        JOINT right_clavicle
        {
          OFFSET -13.16364 1.694482 -4.693211
          CHANNELS 3 Zrotation Xrotation Yrotation
          JOINT right_humerus
          {
            OFFSET -28.5034 -0.3100689 -2.792744
            CHANNELS 3 Zrotation Xrotation Yrotation
            JOINT right_radius
            {
              OFFSET -25.15693 0.02248979 -1.271978
              CHANNELS 3 Zrotation Xrotation Yrotation
              End Site
              {
                OFFSET -15 0 0
              }
            }
          }
        }
      }
      JOINT left_manubrium
      {
        OFFSET 5.722621 16.35077 3.967754
        CHANNELS 3 Zrotation Xrotation Yrotation
        JOINT left_clavicle
        {
          OFFSET 13.16364 1.694482 -4.693211
          CHANNELS 3 Zrotation Xrotation Yrotation
          JOINT left_humerus
          {
            OFFSET 29.39168 -1.063119 -2.237045
            CHANNELS 3 Zrotation Xrotation Yrotation
            JOINT left_radius
            {
              OFFSET 24.59957 -0.9528479 0.9047498
              CHANNELS 3 Zrotation Xrotation Yrotation
              End Site
              {
                OFFSET 15 -0 -0
              }
            }
          }
        }
      }
    }
  }
}
MOTION
Frames: 10
Frame Time: 0.0416666666667
0 103.5113 0 0.7462036 -1.577419 0.0798633 3.853719 -14.92274 8.557484 -2.025134e-06 36.10581 1.23627e-06 -7.274768 -17.73874 -3.011385 -7.019532 5.91993 -22.78781 2.683233e-06 6.056539 -1.767044e-06 7.177726 -17.83796 26.41812 -3.649944 -2.217219 4.582412 2.239974 8.884904 -7.131618 1.176518 22.59565 7.062217 3.204639 -23.77761 9.182175 5.77682 -20.34246 11.65118 84.48997 35.37926 -16.86556 1.38376e-06 5.730323e-07 17.72544 -6.920023 8.050607 4.70871 5.294891 -18.82725 -1.779351 -95.91903 30.32749 24.68227 -5.867472e-07 9.744133e-07 -14.93449 3.304635 17.45671 9.853893
0.3762113 103.4133 1.007312 0.6960596 -1.442292 0.2451656 3.891498 -16.59216 8.698253 -1.45255e-06 38.08656 9.448568e-07 -6.978751 -16.83313 -3.2728 -6.990318 7.766876 -22.89369 3.033238e-06 5.799415 -1.415088e-06 7.04628 -18.22045 25.85695 -3.638332 -2.333707 4.377101 2.282994 8.974843 -7.420791 1.147786 22.3953 7.136688 3.219872 -23.88535 9.233467 5.985438 -20.16966 11.65812 85.18231 35.48271 -17.73247 1.255691e-06 5.633578e-07 17.48292 -6.840427 8.338507 4.59376 5.227252 -18.97017 -1.909339 -95.60849 30.34923 24.33555 -5.008219e-07 7.921033e-07 -15.42775 3.185645 17.1908 10.07028
0.7498605 103.3886 2.203772 0.5975685 -1.120213 0.4898464 4.036595 -18.49318 8.68907 -1.103368e-06 38.52896 7.327045e-07 -6.750429 -15.70617 -3.425084 -6.889195 9.587966 -22.82163 3.355935e-06 5.574018 -1.151389e-06 6.780855 -18.67699 25.18079 -3.589455 -2.430943 4.15924 2.3833 9.038701 -7.728707 1.096764 22.14524 7.261201 3.305586 -24.09093 9.261661 6.152695 -19.94438 11.66857 85.86934 35.62693 -18.68384 1.118979e-06 5.78089e-07 17.02444 -6.863269 8.622164 4.566188 5.27593 -19.24256 -2.02867 -95.19564 30.26884 23.80593 -4.172166e-07 6.845696e-07 -16.21609 3.179591 16.90275 10.15004
1.106009 103.3559 3.633201 0.4673635 -0.6198389 0.7728093 4.275431 -20.47654 8.527802 -1.137364e-06 37.11617 6.951407e-07 -6.589214 -14.37759 -3.429835 -6.747902 11.18385 -22.56452 3.580322e-06 5.378572 -1.15904e-06 6.426408 -19.2043 24.50865 -3.523176 -2.494878 3.960501 2.540552 9.080454 -8.024511 1.021909 21.85614 7.445454 3.482447 -24.38595 9.258994 6.27369 -19.67838 11.69408 86.44085 35.82395 -19.63238 1.000517e-06 6.165566e-07 16.35468 -7.023202 8.857788 4.653359 5.471093 -19.64389 -2.123934 -94.69966 30.06477 23.10662 -3.583671e-07 6.916976e-07 -17.27635 3.300026 16.60919 10.0666
1.43058 103.2466 5.368559 0.3042212 0.005207199 1.06063 4.590736 -22.53371 8.243232 -1.487782e-06 34.15687 7.706275e-07 -6.450813 -12.78278 -3.346248 -6.572712 12.64231 -22.1119 3.723698e-06 5.364525 -1.500178e-06 5.885086 -19.79757 23.79894 -3.433958 -2.511962 3.769684 2.739311 9.09613 -8.304406 0.9412152 21.5532 7.679561 3.742368 -24.73936 9.236234 6.349099 -19.34462 11.72398 87.01304 36.02588 -20.61782 8.904092e-07 6.803924e-07 15.47694 -7.35005 9.06329 4.856154 5.801654 -20.14983 -2.198091 -94.19431 29.76695 22.23391 -3.249176e-07 7.808082e-07 -18.5695 3.478239 16.26729 9.913616
1.71498 103.0034 7.421444 0.1264468 0.7008052 1.318368 4.941369 -24.39603 7.880199 -2.085425e-06 30.01671 9.092244e-07 -6.370178 -11.14975 -3.159844 -6.392086 13.74887 -21.5325 3.759254e-06 5.49878 -2.136584e-06 5.272033 -20.35237 23.13749 -3.335003 -2.491577 3.614529 2.959078 9.084464 -8.533532 0.8559692 21.24202 7.933041 4.050971 -25.11026 9.18716 6.381947 -18.98704 11.75478 87.385 36.24609 -21.46887 8.070505e-07 7.63477e-07 14.50432 -7.758022 9.202317 5.132134 6.212895 -20.68235 -2.235283 -93.65441 29.40158 21.30424 -3.175226e-07 9.456017e-07 -19.91162 3.710423 15.92458 9.676156
1.954613 102.6243 9.862381 -0.1106563 1.445695 1.542908 5.326134 -26.1271 7.45551 -2.626449e-06 25.48499 9.459228e-07 -6.38277 -9.554563 -2.943116 -6.157047 14.73428 -20.83291 3.822957e-06 5.976204 -2.697875e-06 4.418797 -20.76493 22.25635 -3.174423 -2.444842 3.442759 3.182157 9.008308 -8.737185 0.7815079 20.93882 8.165339 4.348928 -25.48868 9.129363 6.370187 -18.57827 11.74823 87.75836 36.4495 -22.26867 6.990393e-07 8.795389e-07 13.46985 -8.163535 9.347156 5.424204 6.614341 -21.18303 -2.24032 -93.12444 29.05188 20.36478 -2.942807e-07 1.082798e-06 -21.22241 3.927758 15.54628 9.458707
2.151014 102.1406 12.71461 -0.3731343 2.103662 1.745226 5.668871 -27.48977 7.011406 -2.914505e-06 21.46337 8.631015e-07 -6.495633 -8.264847 -2.74596 -5.893995 15.50193 -20.08476 3.96484e-06 6.895971 -2.866593e-06 3.403618 -20.91794 21.18448 -2.963159 -2.376412 3.266782 3.36248 8.871973 -8.891378 0.727006 20.69558 8.329463 4.571322 -25.78339 9.062838 6.311792 -18.14476 11.69192 88.09535 36.59086 -22.92618 5.801624e-07 1.005789e-06 12.49003 -8.492265 9.492127 5.660599 6.912128 -21.57272 -2.227743 -92.58276 28.79366 19.47764 -2.481209e-07 1.146427e-06 -22.33701 4.091989 15.16585 9.301937
2.323739 101.6666 16.08862 -0.7255103 2.674748 1.967747 6.005103 -28.32957 6.607671 -2.803205e-06 18.89053 5.797314e-07 -6.721849 -7.229642 -2.60691 -5.551875 16.12769 -19.29021 4.201385e-06 8.573469 -2.707987e-06 2.033552 -20.58596 19.65724 -2.63291 -2.315906 3.059792 3.480059 8.667662 -9.006069 0.7067386 20.48699 8.385372 4.672289 -26.02531 8.995443 6.230778 -17.70733 11.56719 88.53309 36.65254 -23.43605 3.715193e-07 1.1812e-06 11.68555 -8.682768 9.741274 5.831315 6.986761 -21.74573 -2.198597 -92.18306 28.67263 18.89975 -1.506745e-07 1.007713e-06 -23.01096 4.089099 14.71845 9.374002
2.498685 101.3526 20.02403 -1.127507 3.076467 2.242621 6.301054 -28.39164 6.265689 -2.252362e-06 18.22026 1.427265e-07 -7.110278 -6.465871 -2.482045 -5.187099 16.40019 -18.5026 4.497421e-06 11.30651 -2.312546e-06 0.5146778 -19.62504 17.83719 -2.21241 -2.279589 2.860948 3.512738 8.450895 -9.05086 0.7062089 20.31948 8.330328 4.650708 -26.18174 8.906875 6.151037 -17.28518 11.40097 88.8754 36.66491 -23.69282 1.074847e-07 1.38507e-06 11.05262 -8.692467 10.04213 5.894321 6.779584 -21.67647 -2.175914 -91.81783 28.67405 18.68867 -4.064653e-09 6.83807e-07 -23.11857 3.970931 14.26004 9.601348
